# xmcd
#
# Track frame offsets:
#	150
#	9937
#	19356
#	29155
#	39586
#	48741
#	57799
#	66205
#	72752
#	83772
#	95659
#	105203
#	116294
#
# Disc length: 1691 seconds
#
# Revision: 0
# Processed by: cddbd v1.5.2PL0 Copyright (c) Steve Scherf et al.
# Submitted via: EasyCDDAExtractor 12.0.4.1
#
DISCID=a506990d
DTITLE=The Four Dots - Goin´ back to memphis
DYEAR=2008
DGENRE=Rockabilly
TTITLE0=Messin´arround
TTITLE1=Little red book
TTITLE2=Four dots boogie
TTITLE3=Goin´ back to memphis
TTITLE4=Strollin´ in Chinatown
TTITLE5=Long long ponytail
TTITLE6=Twisted Guitar
TTITLE7=Pickin and slidin
TTITLE8=I´m a King bee
TTITLE9=Guitar twang
TTITLE10=Hey hey little girl
TTITLE11=Gotta get some money
TTITLE12=Ubangi stomp
EXTD=
EXTT0=
EXTT1=
EXTT2=
EXTT3=
EXTT4=
EXTT5=
EXTT6=
EXTT7=
EXTT8=
EXTT9=
EXTT10=
EXTT11=
EXTT12=
PLAYORDER=
